<mxfile host="app.diagrams.net" agent="Mozilla/5.0 (Windows NT 10.0; Win64; x64; rv:138.0) Gecko/20100101 Firefox/138.0" version="27.0.6">
  <diagram name="Page-1" id="uytt1R7MPtu5RyoKuCPu">
    <mxGraphModel dx="1665" dy="759" grid="1" gridSize="10" guides="1" tooltips="1" connect="1" arrows="1" fold="1" page="1" pageScale="1" pageWidth="827" pageHeight="1169" math="0" shadow="0">
      <root>
        <mxCell id="0" />
        <mxCell id="1" parent="0" />
        <mxCell id="ROsYcnDKvNK4xUjpLFfV-100" value="" style="endArrow=none;dashed=1;html=1;dashPattern=1 3;strokeWidth=2;rounded=0;entryX=0.5;entryY=1;entryDx=0;entryDy=0;fillColor=#E2E2E2;strokeColor=#A4A4A4;" edge="1" parent="1" target="ROsYcnDKvNK4xUjpLFfV-13">
          <mxGeometry width="50" height="50" relative="1" as="geometry">
            <mxPoint x="408" y="370" as="sourcePoint" />
            <mxPoint x="220" y="270" as="targetPoint" />
          </mxGeometry>
        </mxCell>
        <mxCell id="ROsYcnDKvNK4xUjpLFfV-99" value="" style="endArrow=none;dashed=1;html=1;dashPattern=1 3;strokeWidth=2;rounded=0;entryX=0.5;entryY=1;entryDx=0;entryDy=0;fillColor=#E2E2E2;strokeColor=#A4A4A4;" edge="1" parent="1" target="ROsYcnDKvNK4xUjpLFfV-1">
          <mxGeometry width="50" height="50" relative="1" as="geometry">
            <mxPoint x="120" y="200" as="sourcePoint" />
            <mxPoint x="300" y="180" as="targetPoint" />
          </mxGeometry>
        </mxCell>
        <mxCell id="ROsYcnDKvNK4xUjpLFfV-69" value="" style="shape=hexagon;perimeter=hexagonPerimeter2;whiteSpace=wrap;html=1;fixedSize=1;" vertex="1" parent="1">
          <mxGeometry x="421" y="496" width="150" height="22" as="geometry" />
        </mxCell>
        <mxCell id="ROsYcnDKvNK4xUjpLFfV-70" value="&lt;font face=&quot;Verdana&quot; style=&quot;font-size: 9px;&quot;&gt;count_customers.sql&lt;/font&gt;" style="text;html=1;align=center;verticalAlign=middle;resizable=0;points=[];autosize=1;strokeColor=none;fillColor=none;" vertex="1" parent="1">
          <mxGeometry x="447" y="490" width="120" height="30" as="geometry" />
        </mxCell>
        <mxCell id="ROsYcnDKvNK4xUjpLFfV-75" value="" style="shape=hexagon;perimeter=hexagonPerimeter2;whiteSpace=wrap;html=1;fixedSize=1;" vertex="1" parent="1">
          <mxGeometry x="421" y="526" width="160" height="22" as="geometry" />
        </mxCell>
        <mxCell id="ROsYcnDKvNK4xUjpLFfV-76" value="&lt;font face=&quot;Verdana&quot; style=&quot;font-size: 9px;&quot;&gt;track_performance.sql&lt;/font&gt;" style="text;html=1;align=center;verticalAlign=middle;resizable=0;points=[];autosize=1;strokeColor=none;fillColor=none;" vertex="1" parent="1">
          <mxGeometry x="446" y="520" width="130" height="30" as="geometry" />
        </mxCell>
        <mxCell id="ROsYcnDKvNK4xUjpLFfV-68" value="" style="shape=hexagon;perimeter=hexagonPerimeter2;whiteSpace=wrap;html=1;fixedSize=1;" vertex="1" parent="1">
          <mxGeometry x="420" y="468" width="120" height="22" as="geometry" />
        </mxCell>
        <mxCell id="ROsYcnDKvNK4xUjpLFfV-112" style="edgeStyle=orthogonalEdgeStyle;rounded=0;orthogonalLoop=1;jettySize=auto;html=1;entryX=0;entryY=0.5;entryDx=0;entryDy=0;" edge="1" parent="1">
          <mxGeometry relative="1" as="geometry">
            <mxPoint x="256" y="522" as="sourcePoint" />
            <mxPoint x="420" y="479" as="targetPoint" />
            <Array as="points">
              <mxPoint x="320" y="522" />
              <mxPoint x="320" y="479" />
            </Array>
          </mxGeometry>
        </mxCell>
        <mxCell id="ROsYcnDKvNK4xUjpLFfV-113" style="edgeStyle=orthogonalEdgeStyle;rounded=0;orthogonalLoop=1;jettySize=auto;html=1;entryX=0;entryY=0.5;entryDx=0;entryDy=0;" edge="1" parent="1">
          <mxGeometry relative="1" as="geometry">
            <mxPoint x="256" y="522" as="sourcePoint" />
            <mxPoint x="421" y="507" as="targetPoint" />
            <Array as="points">
              <mxPoint x="320" y="522" />
              <mxPoint x="320" y="507" />
            </Array>
          </mxGeometry>
        </mxCell>
        <mxCell id="ROsYcnDKvNK4xUjpLFfV-114" style="edgeStyle=orthogonalEdgeStyle;rounded=0;orthogonalLoop=1;jettySize=auto;html=1;entryX=0;entryY=0.5;entryDx=0;entryDy=0;" edge="1" parent="1">
          <mxGeometry relative="1" as="geometry">
            <mxPoint x="256" y="522" as="sourcePoint" />
            <mxPoint x="421" y="537" as="targetPoint" />
            <Array as="points">
              <mxPoint x="320" y="522" />
              <mxPoint x="320" y="537" />
            </Array>
          </mxGeometry>
        </mxCell>
        <mxCell id="ROsYcnDKvNK4xUjpLFfV-115" style="edgeStyle=orthogonalEdgeStyle;rounded=0;orthogonalLoop=1;jettySize=auto;html=1;entryX=0;entryY=0.5;entryDx=0;entryDy=0;exitX=1;exitY=0.5;exitDx=0;exitDy=0;" edge="1" parent="1" source="ROsYcnDKvNK4xUjpLFfV-52">
          <mxGeometry relative="1" as="geometry">
            <mxPoint x="256" y="522" as="sourcePoint" />
            <mxPoint x="423" y="567" as="targetPoint" />
            <Array as="points">
              <mxPoint x="320" y="522" />
              <mxPoint x="320" y="567" />
            </Array>
          </mxGeometry>
        </mxCell>
        <mxCell id="ROsYcnDKvNK4xUjpLFfV-52" value="&lt;font face=&quot;Verdana&quot;&gt;dbt&lt;/font&gt;" style="rounded=1;whiteSpace=wrap;html=1;" vertex="1" parent="1">
          <mxGeometry x="86" y="492" width="120" height="60" as="geometry" />
        </mxCell>
        <mxCell id="ROsYcnDKvNK4xUjpLFfV-60" value="" style="shape=image;verticalLabelPosition=bottom;labelBackgroundColor=default;verticalAlign=top;aspect=fixed;imageAspect=0;image=data:image/png,iVBORw0KGgoAAAANSUhEUgAAAKsAAACbCAYAAAAdkmu0AAAKqElEQVR4Xu2dvcsUVxTGr63/gJgipLCxt0hhYRFQCLbByipCSCr7FyRgn8ogaJVKbENAwSKFhYW9jYVYGPIPbJvsnd1Z5x3n48zc8/GcO2chiPHOnTvn/Oa5zzk7u3vhv/0rxSsi4CACFwJWB1mKJTYRCFgDBDcRCFjdpCoWGrAGA24iELC6SVUsNGANBtxEIGB1k6pYaMAaDLiJQMDqJlWx0IA1GHATATNYd//+ky6+fJbSx/cpffpwCNhX36T09ZW0u3knXbx02U0Qa1lok5N3bw85yf/l1z4fTU6uXjPPiT6sf/+Z0vPH8/nN4F6/ldKN2/NjY0RRBBpInzz8LBpjs337namQ6MFKhbQfqIC2CMSpg8mQDuRkd+9MXWnFYV0dkH6AjO9qMWIMJj5ZsDevys7+w0+qO58orGygdkMa0JYBtnaHm7AG6e79sjURjxaDtQH11x+Jy1gxTPmuXrFCrEO4Ie0JiAawIrCKg9oGKvzs7A0hsrsNnXW/40kDyw6rWnC6AdtDa2H4Z0kxHMDmS5dcgzCw7LCmh7/Mt0CWBGDJ2PCzh2hJbvlz+RC0Z7ywWgYprMEB0tcv7MSizcHvf80hverf2WA12f6nLnlDfhYu9kLqygar6dYzBW3t1uCP31Iq7Zeu0rmZgwTUlQ9WS69KCXZt0CJYrqm4C6grC6xqrSoKlJVbA7gtfyze2YadPSrN2LnjWWCFtQATgfTW6nIDaTfmzFaAB1Z0CzAGrRdrgL7lj8WX2QrwwPrz96xyrz4Zc1DZ1o/Silp7QcxxDVgB+7Mut/whoCFh9WoDhgJs/dYtaitqjbpCwlpTgNukMAd6NtdefenEhe0ePGV9QJvFBrhpXc0S0xugoLLVbPn92MK2rvJCa7IC/cBLdQ1q3JEEdyYWZc3rq1Zdu+AyW4NQ1WVbHRuszWlrVlehrkGVwDLf1G3oWWHdhLq2kWO0BlUBK+BVRWBtJq3Zhwn2Emu50bk7AN2QsyrrZrzrUOXL8IUc7oF197GWnMgKe4akUoDDGjjemSRVNcefXVlPSfX+vACJzpFB+wKj6LuhPBaqQkWVqA04Tb5VdWXoGrizA4JFlQ6sW2llzSnw2nfBPKmrgqrK2oCtvFEwB+vKVpcbdVVSVXFYmzx5UggqeGvHLf3ErYPYSRdVejYg1HUYa6o1QPf9wq2qfvDkugHdM6EHfa1Slh5HaXUBd1U0VVXHBrQJBQ56KXNFx89ZA1QroFRUqdqAaGURUR6DFnFXUiyqbGCNYotGbc8aQHYFDFRV1wZEsUWDtR3VBQLJQhmpqjqs0cpaxmvzU0v5ARnKr9ssnHrtcO2iys4GhLquZQTjOOVWlU3rqn9WxKIBAwfcVVB7w4JXoNNnHboAJB8mGOBqpjYqqkxtQLSyHOJrWFRhwBqtLD/UAqiqTTegkyLIHqIfhHRWalxU4ShrXonjj3Ho0GJ7FstWFUY3oL+KKLZsiRw7O8j23y7PrhvQDVC0svBgBSmqsGxAuxrUp4vwMNJZEZiqmhdY3ahHsaXDIOksQEUVprJGK4vEkcYgpKIKFtZQVw0UZ84BuP1jFVhRbAFQul8CYFEFq6ynhUWxZQMvsKpCFVjnshOtLH1YQYsqfGWNYksdVtSiygWsUWwp8gruVXELrG6OPL0N291GvdkYcK/qA1YvSR/we652BuYfBJbaEzCeDRi5OhcJn9hCXazfQWHlQ1nzKpGtAMHrwQPrxALgtq66SovacyWA2l4GMrAeugB+lBXx4ewFoMID68Sv+lBWtCJrBajQwAasjPUgEqwMn52HsgQFNx5jhslTQXcD8lUgJZfN36HcgAEr+UYhDUSCNTFtmTDXFLCSGCQPgklsVvkHT9PFS5fJax8diFI0BqzluezOgARrY0tKgUWxAPliAlZeWBF/WnM1sEigtmlisjbMWR+cDr7AQv0SjMXAIoLKsVNoUHo8Bz6sqO9gLUk0KKgNA/F2K+PthvxsAAVYZFBzmuJBFh5Y0YqrsasatQTooDorsrBtAEqLh3DvfQGsB1CP17XYfxPiITEEG1ZgvzqYjOz/8uv1i5Q+fZDIl8ycTqwALqyOlEmGIOVZHbSwcGH1pqrKbLGfzkFXABPWUFV2FikTontXTFhDVSls8Y8B9654sIaq8kO4YEZkdYWC1UtfdUHu/Q0FfrgFClbU5wD8EVe4YtBiCwfW2P4LCWM+HLCVhQNrFFXMtBVOB1hsYcAaqlpIlszhaMWWOaxRVMmAxjIrWLFlDmsUVSxYyU0CVGyZwhqqKscY68wgxZYprCmKKlamxCYDKbbsYI2iSowtiYkRii0TWJvt/8lDX898ShDgaU6AYssE1iiqPFH6ea3W6qoOaxRVPkFtVm2sruqwQqmq14+hWPJu2MrShRWtqDpWuY3av3yW0ptXlhj4ObdRK0sXVrRWVW9bi8KPeL8YtbL0YEVT1TYvQyqR1+rtE6pEzriGWRRbKrBCK9aIB2vW/O5tSs8fc+W3rnkMii0VWKGKqj4yM1ta+NmJe0y52BKH1UWrilIwhDX4klpldRWH1cX7/0sUAtV7W5mMJbErXKMsrF4Su1Ahwhr0qKPsTIWg5sNlYUVrVU0FbIVCQBeODHCQp1jQysoxy681v80gB6sXVe1mZK1ChJ+d/62F/I2QH9+n9PWV05+7m3cWQSsCq1vFWaAQfdXZvDWYslL5Zt6/dlevnQtb8+Td2SOygIvACt2qmglNabPb7Y1KRmZ84Gjssh3MUOY/r986vOGS/75X2yXqyg6ri1bVVGIYfvKymX6L1mBAXU837xHW3b2zw7PM+e9HxU03bpNuFXZYPavqKWILuwOTkfbo3UnojAwaKlS7ypo9a37dvW8Ma02JYQR2c362X6juYT2nqB14m/9P/NVGXmX11KqiqAcjsJuyBj11PVmBvV9ti6zmkcysskQLkOPHB2tNqtoFmcvDdufcgp/tqetpdzm2r5YUVm3o+GCtTVXbCGV1zRXsAgWgiHb11mDFmyxzceOBtVZVFQh4PyFVQ7v2TZYRanlgdfR7VXN3b/Pv+zcH1mxTpLnHBtVoDZhvdh5Ya7EAEv50KcE1QQsJK/jvq5J4YQ4s6Zwjg6qxBswxDWUteB6gBEjKse6hhYTVo2dF2PIpxOYxTq1B6XMW/fDwKKunboBQK4rKXdE4T9Byv6HC9aaAm4dXmLelIvBWHuzmU7cC9opHWXPgkTsCnrZ8IsTofpbbAuSw8MGKaAUqhHTwTQW0rw8VUFVeWNHUtYItnyiyh2FAflZCVdlhhfCuQnf1InAsB1tDKygSfDagTZBVG2sDWz71HjArwgQ6AN1r5odV2w4EpKMMqxZhCnmQgVULWMEth6piHsaJf4hRAVR2z9pNnGiAtu5L194hEn5WCVRRWPPk7MAqBmYtDy6O44JWWTTkbEA3a6U92IBU5h4oyYuBBdOBtURlDYIiQwbmrIuLMMN8qMHapoocHMOgYGIlu6pzH+j79OHzyXI7av8pVPVPTgxcrjqsXxRh+avQ8ycejy+EoMhigT97yTf9SV6dKaySFxZz1xeBgLW+nFZ7RQFrtamt78IC1vpyWu0VBazVpra+CwtY68tptVcUsFab2vouLGCtL6fVXlHAWm1q67uw/wHqjWWZzv2AJQAAAABJRU5ErkJggg==;" vertex="1" parent="1">
          <mxGeometry x="99" y="480" width="24.82" height="22.5" as="geometry" />
        </mxCell>
        <mxCell id="ROsYcnDKvNK4xUjpLFfV-67" value="&lt;font face=&quot;Verdana&quot; style=&quot;font-size: 9px;&quot;&gt;agg_sales.sql&lt;/font&gt;" style="text;html=1;align=center;verticalAlign=middle;resizable=0;points=[];autosize=1;strokeColor=none;fillColor=none;" vertex="1" parent="1">
          <mxGeometry x="451" y="462" width="80" height="30" as="geometry" />
        </mxCell>
        <mxCell id="ROsYcnDKvNK4xUjpLFfV-65" value="" style="shape=image;html=1;verticalAlign=top;verticalLabelPosition=bottom;labelBackgroundColor=#ffffff;imageAspect=0;aspect=fixed;image=https://cdn1.iconfinder.com/data/icons/hawcons/32/699251-icon-24-file-sql-128.png" vertex="1" parent="1">
          <mxGeometry x="436.23" y="467" width="23.25" height="23.25" as="geometry" />
        </mxCell>
        <mxCell id="ROsYcnDKvNK4xUjpLFfV-71" value="" style="shape=image;html=1;verticalAlign=top;verticalLabelPosition=bottom;labelBackgroundColor=#ffffff;imageAspect=0;aspect=fixed;image=https://cdn1.iconfinder.com/data/icons/hawcons/32/699251-icon-24-file-sql-128.png" vertex="1" parent="1">
          <mxGeometry x="437.23" y="495" width="23.25" height="23.25" as="geometry" />
        </mxCell>
        <mxCell id="ROsYcnDKvNK4xUjpLFfV-72" value="" style="shape=hexagon;perimeter=hexagonPerimeter2;whiteSpace=wrap;html=1;fixedSize=1;" vertex="1" parent="1">
          <mxGeometry x="423" y="556" width="140" height="22" as="geometry" />
        </mxCell>
        <mxCell id="ROsYcnDKvNK4xUjpLFfV-73" value="&lt;font face=&quot;Verdana&quot; style=&quot;font-size: 9px;&quot;&gt;other_models.sql&lt;/font&gt;" style="text;html=1;align=center;verticalAlign=middle;resizable=0;points=[];autosize=1;strokeColor=none;fillColor=none;" vertex="1" parent="1">
          <mxGeometry x="451" y="550" width="100" height="30" as="geometry" />
        </mxCell>
        <mxCell id="ROsYcnDKvNK4xUjpLFfV-74" value="" style="shape=image;html=1;verticalAlign=top;verticalLabelPosition=bottom;labelBackgroundColor=#ffffff;imageAspect=0;aspect=fixed;image=https://cdn1.iconfinder.com/data/icons/hawcons/32/699251-icon-24-file-sql-128.png" vertex="1" parent="1">
          <mxGeometry x="439.23" y="555" width="23.25" height="23.25" as="geometry" />
        </mxCell>
        <mxCell id="ROsYcnDKvNK4xUjpLFfV-77" value="" style="shape=image;html=1;verticalAlign=top;verticalLabelPosition=bottom;labelBackgroundColor=#ffffff;imageAspect=0;aspect=fixed;image=https://cdn1.iconfinder.com/data/icons/hawcons/32/699251-icon-24-file-sql-128.png" vertex="1" parent="1">
          <mxGeometry x="437.23" y="525" width="23.25" height="23.25" as="geometry" />
        </mxCell>
        <mxCell id="ROsYcnDKvNK4xUjpLFfV-85" value="" style="group;shadow=1;fillColor=#FFFFFF;strokeColor=#0B0B0B;" vertex="1" connectable="0" parent="1">
          <mxGeometry x="40" y="110" width="170" height="70" as="geometry" />
        </mxCell>
        <mxCell id="ROsYcnDKvNK4xUjpLFfV-3" value="&lt;div align=&quot;left&quot;&gt;&lt;font style=&quot;font-size: 9px;&quot; face=&quot;Verdana&quot;&gt;a_la_carte_menu.csv&lt;/font&gt;&lt;br&gt;&lt;font style=&quot;font-size: 9px;&quot; face=&quot;Verdana&quot;&gt;dessert_menu.csv&lt;/font&gt;&lt;br&gt;&lt;font style=&quot;font-size: 9px;&quot; face=&quot;Verdana&quot;&gt;cocktails_and_beer_menu.csv&lt;/font&gt;&lt;br&gt;&lt;font style=&quot;font-size: 9px;&quot; face=&quot;Verdana&quot;&gt;wine_menu.csv&lt;/font&gt;&lt;/div&gt;" style="text;html=1;align=left;verticalAlign=middle;resizable=0;points=[];autosize=1;strokeColor=none;fillColor=none;" vertex="1" parent="ROsYcnDKvNK4xUjpLFfV-85">
          <mxGeometry x="23" width="160" height="70" as="geometry" />
        </mxCell>
        <mxCell id="ROsYcnDKvNK4xUjpLFfV-2" value="" style="shape=image;html=1;verticalAlign=top;verticalLabelPosition=bottom;labelBackgroundColor=#ffffff;imageAspect=0;aspect=fixed;image=https://cdn1.iconfinder.com/data/icons/bootstrap-vol-3/16/filetype-csv-128.png" vertex="1" parent="ROsYcnDKvNK4xUjpLFfV-85">
          <mxGeometry x="12" y="10" width="10" height="10" as="geometry" />
        </mxCell>
        <mxCell id="ROsYcnDKvNK4xUjpLFfV-4" value="" style="shape=image;html=1;verticalAlign=top;verticalLabelPosition=bottom;labelBackgroundColor=#ffffff;imageAspect=0;aspect=fixed;image=https://cdn1.iconfinder.com/data/icons/bootstrap-vol-3/16/filetype-csv-128.png" vertex="1" parent="ROsYcnDKvNK4xUjpLFfV-85">
          <mxGeometry x="12" y="52" width="10" height="10" as="geometry" />
        </mxCell>
        <mxCell id="ROsYcnDKvNK4xUjpLFfV-7" value="" style="shape=image;html=1;verticalAlign=top;verticalLabelPosition=bottom;labelBackgroundColor=#ffffff;imageAspect=0;aspect=fixed;image=https://cdn1.iconfinder.com/data/icons/bootstrap-vol-3/16/filetype-csv-128.png" vertex="1" parent="ROsYcnDKvNK4xUjpLFfV-85">
          <mxGeometry x="12" y="24.5" width="10" height="10" as="geometry" />
        </mxCell>
        <mxCell id="ROsYcnDKvNK4xUjpLFfV-9" value="" style="shape=image;html=1;verticalAlign=top;verticalLabelPosition=bottom;labelBackgroundColor=#ffffff;imageAspect=0;aspect=fixed;image=https://cdn1.iconfinder.com/data/icons/bootstrap-vol-3/16/filetype-csv-128.png" vertex="1" parent="ROsYcnDKvNK4xUjpLFfV-85">
          <mxGeometry x="12" y="38.5" width="10" height="10" as="geometry" />
        </mxCell>
        <mxCell id="ROsYcnDKvNK4xUjpLFfV-86" value="" style="group" vertex="1" connectable="0" parent="1">
          <mxGeometry x="40" y="22.775" width="160" height="74.45" as="geometry" />
        </mxCell>
        <mxCell id="ROsYcnDKvNK4xUjpLFfV-1" value="&lt;font face=&quot;Verdana&quot;&gt;CSV&lt;/font&gt;" style="rounded=1;whiteSpace=wrap;html=1;" vertex="1" parent="ROsYcnDKvNK4xUjpLFfV-86">
          <mxGeometry y="14.450000000000003" width="160" height="60" as="geometry" />
        </mxCell>
        <mxCell id="ROsYcnDKvNK4xUjpLFfV-79" value="" style="whiteSpace=wrap;html=1;aspect=fixed;fillColor=default;strokeColor=#FFFFFF;" vertex="1" parent="ROsYcnDKvNK4xUjpLFfV-86">
          <mxGeometry x="4.689999999999998" width="22.45" height="22.45" as="geometry" />
        </mxCell>
        <mxCell id="ROsYcnDKvNK4xUjpLFfV-56" value="" style="shadow=0;dashed=0;html=1;strokeColor=none;fillColor=#4495D1;labelPosition=center;verticalLabelPosition=bottom;verticalAlign=top;align=center;outlineConnect=0;shape=mxgraph.veeam.local_disk;" vertex="1" parent="ROsYcnDKvNK4xUjpLFfV-86">
          <mxGeometry x="6" y="2.7600000000000016" width="19.83" height="19.69" as="geometry" />
        </mxCell>
        <mxCell id="ROsYcnDKvNK4xUjpLFfV-87" value="" style="group" vertex="1" connectable="0" parent="1">
          <mxGeometry x="327.5" y="23.275" width="160" height="73.45" as="geometry" />
        </mxCell>
        <mxCell id="ROsYcnDKvNK4xUjpLFfV-13" value="&lt;font face=&quot;Verdana&quot;&gt;BigQuery&lt;/font&gt;" style="rounded=1;whiteSpace=wrap;html=1;" vertex="1" parent="ROsYcnDKvNK4xUjpLFfV-87">
          <mxGeometry y="13.450000000000003" width="160" height="60" as="geometry" />
        </mxCell>
        <mxCell id="ROsYcnDKvNK4xUjpLFfV-55" value="" style="whiteSpace=wrap;html=1;aspect=fixed;fillColor=default;strokeColor=#FFFFFF;" vertex="1" parent="ROsYcnDKvNK4xUjpLFfV-87">
          <mxGeometry x="10" y="2.450000000000003" width="22.45" height="22.45" as="geometry" />
        </mxCell>
        <mxCell id="ROsYcnDKvNK4xUjpLFfV-54" value="" style="editableCssRules=.*;html=1;shape=image;verticalLabelPosition=bottom;labelBackgroundColor=#ffffff;verticalAlign=top;aspect=fixed;imageAspect=0;image=data:image/svg+xml,PHN2ZyB4bWxucz0iaHR0cDovL3d3dy53My5vcmcvMjAwMC9zdmciIHhtbG5zOnY9Imh0dHBzOi8vdmVjdGEuaW8vbmFubyIgd2lkdGg9IjIwLjAwMTA0NTIyNzA1MDc4IiBoZWlnaHQ9IjIwLjAwMTA0NTIyNzA1MDc4IiBmaWxsLXJ1bGU9ImV2ZW5vZGQiIHZpZXdCb3g9IjAgMCAyMC4wMDEwNDUyMjcwNTA3OCAyMC4wMDEwNDUyMjcwNTA3OCI+JiN4YTsJPHN0eWxlIHR5cGU9InRleHQvY3NzIj4mI3hhOwkuc3Qwe2ZpbGw6I2FlY2JmYTt9JiN4YTsJLnN0MXtmaWxsOiM2NjlkZjY7fSYjeGE7CS5zdDJ7ZmlsbDojNDI4NWY0O30mI3hhOwk8L3N0eWxlPiYjeGE7CTxwYXRoIGNsYXNzPSJzdDAiIGQ9Ik00LjczIDguODN2Mi42M2E0LjkxIDQuOTEgMCAwIDAgMS43MSAxLjc0VjguODN6Ii8+JiN4YTsJPHBhdGggY2xhc3M9InN0MSIgZD0iTTcuODkgNi40MXY3LjUzQTcuNjIgNy42MiAwIDAgMCA5IDE0YTggOCAwIDAgMCAxIDBWNi40MXoiLz4mI3hhOwk8cGF0aCBjbGFzcz0ic3QwIiBkPSJNMTEuNjQgOS44NnYzLjI5YTUgNSAwIDAgMCAxLjctMS44MlY5Ljg2eiIvPiYjeGE7CTxwYXRoIGNsYXNzPSJzdDIiIGQ9Ik0xNS43NCAxNC4zMmwtMS40MiAxLjQyYS40Mi40MiAwIDAgMCAwIC42bDMuNTQgMy41NGEuNDIuNDIgMCAwIDAgLjU5IDBsMS40My0xLjQzYS40Mi40MiAwIDAgMCAwLS41OWwtMy41NC0zLjU0YS40Mi40MiAwIDAgMC0uNiAwIi8+JiN4YTsJPHBhdGggY2xhc3M9InN0MSIgZD0iTTkgMGE5IDkgMCAxIDAgMCAxOEE5IDkgMCAxIDAgOSAwbTAgMTUuNjlhNi42OCA2LjY4IDAgMCAxIC4wMDctMTMuMzYgNi42OCA2LjY4IDAgMCAxIDQuNzI3IDExLjQwM0E2LjY4IDYuNjggMCAwIDEgOSAxNS42OSIvPiYjeGE7PC9zdmc+;" vertex="1" parent="ROsYcnDKvNK4xUjpLFfV-87">
          <mxGeometry x="10" width="25" height="25" as="geometry" />
        </mxCell>
        <mxCell id="ROsYcnDKvNK4xUjpLFfV-88" value="" style="group" vertex="1" connectable="0" parent="1">
          <mxGeometry x="640" y="60" width="120" height="80" as="geometry" />
        </mxCell>
        <mxCell id="ROsYcnDKvNK4xUjpLFfV-44" value="&lt;font face=&quot;Verdana&quot;&gt;Ordering Simulation&lt;/font&gt;" style="rounded=1;whiteSpace=wrap;html=1;" vertex="1" parent="ROsYcnDKvNK4xUjpLFfV-88">
          <mxGeometry y="20" width="120" height="60" as="geometry" />
        </mxCell>
        <mxCell id="ROsYcnDKvNK4xUjpLFfV-48" value="" style="whiteSpace=wrap;html=1;aspect=fixed;fillColor=default;strokeColor=#FFFFFF;" vertex="1" parent="ROsYcnDKvNK4xUjpLFfV-88">
          <mxGeometry x="16" y="7.549999999999997" width="22.45" height="22.45" as="geometry" />
        </mxCell>
        <mxCell id="ROsYcnDKvNK4xUjpLFfV-45" value="" style="shape=image;html=1;verticalAlign=top;verticalLabelPosition=bottom;labelBackgroundColor=#ffffff;imageAspect=0;aspect=fixed;image=https://cdn4.iconfinder.com/data/icons/ionicons/512/icon-social-github-128.png" vertex="1" parent="ROsYcnDKvNK4xUjpLFfV-88">
          <mxGeometry x="10" width="33.55" height="33.55" as="geometry" />
        </mxCell>
        <mxCell id="ROsYcnDKvNK4xUjpLFfV-93" value="" style="edgeStyle=orthogonalEdgeStyle;rounded=0;orthogonalLoop=1;jettySize=auto;html=1;entryX=0;entryY=0.5;entryDx=0;entryDy=0;" edge="1" parent="1" source="ROsYcnDKvNK4xUjpLFfV-1" target="ROsYcnDKvNK4xUjpLFfV-13">
          <mxGeometry relative="1" as="geometry" />
        </mxCell>
        <mxCell id="ROsYcnDKvNK4xUjpLFfV-94" value="&lt;font face=&quot;Courier New&quot;&gt;manually&lt;br&gt;ingest&lt;/font&gt;" style="edgeLabel;html=1;align=center;verticalAlign=middle;resizable=0;points=[];" vertex="1" connectable="0" parent="ROsYcnDKvNK4xUjpLFfV-93">
          <mxGeometry x="-0.0293" y="1" relative="1" as="geometry">
            <mxPoint as="offset" />
          </mxGeometry>
        </mxCell>
        <mxCell id="ROsYcnDKvNK4xUjpLFfV-95" style="edgeStyle=orthogonalEdgeStyle;rounded=0;orthogonalLoop=1;jettySize=auto;html=1;exitX=0.5;exitY=0;exitDx=0;exitDy=0;entryX=0.5;entryY=0;entryDx=0;entryDy=0;" edge="1" parent="1" source="ROsYcnDKvNK4xUjpLFfV-13" target="ROsYcnDKvNK4xUjpLFfV-44">
          <mxGeometry relative="1" as="geometry">
            <mxPoint x="707" y="60" as="targetPoint" />
            <Array as="points">
              <mxPoint x="408" y="17" />
              <mxPoint x="700" y="17" />
            </Array>
          </mxGeometry>
        </mxCell>
        <mxCell id="ROsYcnDKvNK4xUjpLFfV-96" value="&lt;font face=&quot;Courier New&quot;&gt;read menus &lt;br&gt;&lt;/font&gt;" style="edgeLabel;html=1;align=center;verticalAlign=middle;resizable=0;points=[];" vertex="1" connectable="0" parent="ROsYcnDKvNK4xUjpLFfV-95">
          <mxGeometry x="-0.1403" relative="1" as="geometry">
            <mxPoint y="-1" as="offset" />
          </mxGeometry>
        </mxCell>
        <mxCell id="ROsYcnDKvNK4xUjpLFfV-97" style="edgeStyle=orthogonalEdgeStyle;rounded=0;orthogonalLoop=1;jettySize=auto;html=1;exitX=0.5;exitY=1;exitDx=0;exitDy=0;" edge="1" parent="1" source="ROsYcnDKvNK4xUjpLFfV-44">
          <mxGeometry relative="1" as="geometry">
            <mxPoint x="665.26" y="144.7300000000001" as="sourcePoint" />
            <mxPoint x="490" y="220" as="targetPoint" />
            <Array as="points">
              <mxPoint x="700" y="220" />
              <mxPoint x="500" y="220" />
            </Array>
          </mxGeometry>
        </mxCell>
        <mxCell id="ROsYcnDKvNK4xUjpLFfV-98" value="&lt;pre&gt;&lt;font face=&quot;Courier New&quot;&gt;write orders&lt;/font&gt;&lt;/pre&gt;" style="edgeLabel;html=1;align=center;verticalAlign=middle;resizable=0;points=[];" vertex="1" connectable="0" parent="ROsYcnDKvNK4xUjpLFfV-97">
          <mxGeometry x="-0.2748" y="2" relative="1" as="geometry">
            <mxPoint x="-85" y="-3" as="offset" />
          </mxGeometry>
        </mxCell>
        <mxCell id="ROsYcnDKvNK4xUjpLFfV-50" value="&lt;font style=&quot;font-size: 9px;&quot; face=&quot;Verdana&quot;&gt;autorun &lt;br&gt;everyday @ 01:00AM&lt;/font&gt;" style="text;html=1;align=center;verticalAlign=middle;resizable=0;points=[];autosize=1;strokeColor=none;fillColor=#FFFFFF;shadow=1;" vertex="1" parent="1">
          <mxGeometry x="640" y="160" width="120" height="40" as="geometry" />
        </mxCell>
        <mxCell id="ROsYcnDKvNK4xUjpLFfV-102" value="" style="group;fillColor=#FFFFFF;strokeColor=#0B0B0B;" vertex="1" connectable="0" parent="1">
          <mxGeometry x="325" y="255" width="165" height="99" as="geometry" />
        </mxCell>
        <mxCell id="ROsYcnDKvNK4xUjpLFfV-34" value="&lt;font style=&quot;font-size: 9px;&quot; face=&quot;Verdana&quot;&gt;aggregate_sales&lt;/font&gt;" style="text;html=1;align=center;verticalAlign=middle;resizable=0;points=[];autosize=1;strokeColor=none;fillColor=none;" vertex="1" parent="ROsYcnDKvNK4xUjpLFfV-102">
          <mxGeometry x="26" y="17" width="100" height="30" as="geometry" />
        </mxCell>
        <mxCell id="ROsYcnDKvNK4xUjpLFfV-40" value="&lt;font style=&quot;font-size: 9px;&quot; face=&quot;Verdana&quot;&gt;other analytics&lt;/font&gt;" style="text;html=1;align=center;verticalAlign=middle;resizable=0;points=[];autosize=1;strokeColor=none;fillColor=none;" vertex="1" parent="ROsYcnDKvNK4xUjpLFfV-102">
          <mxGeometry x="26" y="69" width="90" height="30" as="geometry" />
        </mxCell>
        <mxCell id="ROsYcnDKvNK4xUjpLFfV-31" value="&lt;font style=&quot;font-size: 9px;&quot; face=&quot;Verdana&quot;&gt;...&lt;/font&gt;" style="text;html=1;align=center;verticalAlign=middle;resizable=0;points=[];autosize=1;strokeColor=none;fillColor=none;" vertex="1" parent="ROsYcnDKvNK4xUjpLFfV-102">
          <mxGeometry x="51" y="55" width="30" height="30" as="geometry" />
        </mxCell>
        <mxCell id="ROsYcnDKvNK4xUjpLFfV-32" value="&lt;font style=&quot;font-size: 9px;&quot; face=&quot;Verdana&quot;&gt;item_performance&lt;/font&gt;" style="text;html=1;align=center;verticalAlign=middle;resizable=0;points=[];autosize=1;strokeColor=none;fillColor=none;" vertex="1" parent="ROsYcnDKvNK4xUjpLFfV-102">
          <mxGeometry x="26" y="42" width="110" height="30" as="geometry" />
        </mxCell>
        <mxCell id="ROsYcnDKvNK4xUjpLFfV-33" value="&lt;font style=&quot;font-size: 9px;&quot; face=&quot;Verdana&quot;&gt;customer_counts&lt;/font&gt;" style="text;html=1;align=center;verticalAlign=middle;resizable=0;points=[];autosize=1;strokeColor=none;fillColor=none;" vertex="1" parent="ROsYcnDKvNK4xUjpLFfV-102">
          <mxGeometry x="28" y="29" width="100" height="30" as="geometry" />
        </mxCell>
        <mxCell id="ROsYcnDKvNK4xUjpLFfV-35" value="" style="sketch=0;outlineConnect=0;fontColor=#232F3E;gradientColor=none;fillColor=#000000;strokeColor=none;dashed=0;verticalLabelPosition=bottom;verticalAlign=top;align=center;html=1;fontSize=12;fontStyle=0;aspect=fixed;pointerEvents=1;shape=mxgraph.aws4.data_table;" vertex="1" parent="ROsYcnDKvNK4xUjpLFfV-102">
          <mxGeometry x="24" y="30" width="11.9" height="9" as="geometry" />
        </mxCell>
        <mxCell id="ROsYcnDKvNK4xUjpLFfV-37" value="" style="sketch=0;outlineConnect=0;fontColor=#232F3E;gradientColor=none;fillColor=#000000;strokeColor=none;dashed=0;verticalLabelPosition=bottom;verticalAlign=top;align=center;html=1;fontSize=12;fontStyle=0;aspect=fixed;pointerEvents=1;shape=mxgraph.aws4.data_table;" vertex="1" parent="ROsYcnDKvNK4xUjpLFfV-102">
          <mxGeometry x="24" y="42" width="11.9" height="9" as="geometry" />
        </mxCell>
        <mxCell id="ROsYcnDKvNK4xUjpLFfV-38" value="" style="sketch=0;outlineConnect=0;fontColor=#232F3E;gradientColor=none;fillColor=#000000;strokeColor=none;dashed=0;verticalLabelPosition=bottom;verticalAlign=top;align=center;html=1;fontSize=12;fontStyle=0;aspect=fixed;pointerEvents=1;shape=mxgraph.aws4.data_table;" vertex="1" parent="ROsYcnDKvNK4xUjpLFfV-102">
          <mxGeometry x="24" y="56" width="11.9" height="9" as="geometry" />
        </mxCell>
        <mxCell id="ROsYcnDKvNK4xUjpLFfV-39" value="" style="sketch=0;outlineConnect=0;fontColor=#232F3E;gradientColor=none;fillColor=#000000;strokeColor=none;dashed=0;verticalLabelPosition=bottom;verticalAlign=top;align=center;html=1;fontSize=12;fontStyle=0;aspect=fixed;pointerEvents=1;shape=mxgraph.aws4.data_table;" vertex="1" parent="ROsYcnDKvNK4xUjpLFfV-102">
          <mxGeometry x="24" y="68.5" width="11.9" height="9" as="geometry" />
        </mxCell>
        <mxCell id="ROsYcnDKvNK4xUjpLFfV-41" value="" style="sketch=0;outlineConnect=0;fontColor=#232F3E;gradientColor=none;fillColor=#000000;strokeColor=none;dashed=0;verticalLabelPosition=bottom;verticalAlign=top;align=center;html=1;fontSize=12;fontStyle=0;aspect=fixed;pointerEvents=1;shape=mxgraph.aws4.data_table;" vertex="1" parent="ROsYcnDKvNK4xUjpLFfV-102">
          <mxGeometry x="24" y="81.5" width="11.9" height="9" as="geometry" />
        </mxCell>
        <mxCell id="ROsYcnDKvNK4xUjpLFfV-92" value="" style="group;strokeColor=#0B0B0B;" vertex="1" connectable="0" parent="ROsYcnDKvNK4xUjpLFfV-102">
          <mxGeometry width="165" height="21" as="geometry" />
        </mxCell>
        <mxCell id="ROsYcnDKvNK4xUjpLFfV-36" value="&lt;font style=&quot;font-size: 9px;&quot; face=&quot;Verdana&quot;&gt;&amp;nbsp;&amp;nbsp;&amp;nbsp;&amp;nbsp;&amp;nbsp;&amp;nbsp;&amp;nbsp;&amp;nbsp; dbt_&lt;/font&gt;" style="html=1;dashed=0;whiteSpace=wrap;shape=mxgraph.dfd.dataStoreID;align=left;spacingLeft=3;points=[[0,0],[0.5,0],[1,0],[0,0.5],[1,0.5],[0,1],[0.5,1],[1,1]];" vertex="1" parent="ROsYcnDKvNK4xUjpLFfV-92">
          <mxGeometry width="165" height="21" as="geometry" />
        </mxCell>
        <mxCell id="ROsYcnDKvNK4xUjpLFfV-58" value="" style="sketch=0;outlineConnect=0;fontColor=#232F3E;gradientColor=none;strokeColor=#000000;fillColor=#ffffff;dashed=0;verticalLabelPosition=bottom;verticalAlign=top;align=center;html=1;fontSize=12;fontStyle=0;aspect=fixed;shape=mxgraph.aws4.resourceIcon;resIcon=mxgraph.aws4.container_1;" vertex="1" parent="ROsYcnDKvNK4xUjpLFfV-92">
          <mxGeometry x="14" y="6" width="14" height="14" as="geometry" />
        </mxCell>
        <mxCell id="ROsYcnDKvNK4xUjpLFfV-49" value="" style="html=1;verticalLabelPosition=bottom;align=center;labelBackgroundColor=#ffffff;verticalAlign=top;strokeWidth=2;strokeColor=#0080F0;shadow=0;dashed=0;shape=mxgraph.ios7.icons.reload;" vertex="1" parent="1">
          <mxGeometry x="670" y="171" width="8" height="9" as="geometry" />
        </mxCell>
        <mxCell id="ROsYcnDKvNK4xUjpLFfV-101" value="" style="group;shadow=1;fillColor=#FFFFFF;strokeColor=#0B0B0B;" vertex="1" connectable="0" parent="1">
          <mxGeometry x="325" y="119" width="168" height="109" as="geometry" />
        </mxCell>
        <mxCell id="ROsYcnDKvNK4xUjpLFfV-105" style="edgeStyle=orthogonalEdgeStyle;rounded=0;orthogonalLoop=1;jettySize=auto;html=1;entryX=0.5;entryY=0;entryDx=0;entryDy=0;" edge="1" parent="ROsYcnDKvNK4xUjpLFfV-101" target="ROsYcnDKvNK4xUjpLFfV-52">
          <mxGeometry relative="1" as="geometry">
            <mxPoint x="-175" y="371" as="targetPoint" />
            <mxPoint x="-5" y="96" as="sourcePoint" />
          </mxGeometry>
        </mxCell>
        <mxCell id="ROsYcnDKvNK4xUjpLFfV-24" value="&lt;font style=&quot;font-size: 9px;&quot; face=&quot;Verdana&quot;&gt;wine_menu&lt;/font&gt;" style="text;html=1;align=center;verticalAlign=middle;resizable=0;points=[];autosize=1;strokeColor=none;fillColor=none;" vertex="1" parent="ROsYcnDKvNK4xUjpLFfV-101">
          <mxGeometry x="26" y="55" width="80" height="30" as="geometry" />
        </mxCell>
        <mxCell id="ROsYcnDKvNK4xUjpLFfV-20" value="&lt;font style=&quot;font-size: 9px;&quot; face=&quot;Verdana&quot;&gt;cocktails_and_beer_menu&lt;/font&gt;" style="text;html=1;align=center;verticalAlign=middle;resizable=0;points=[];autosize=1;strokeColor=none;fillColor=none;" vertex="1" parent="ROsYcnDKvNK4xUjpLFfV-101">
          <mxGeometry x="28" y="42" width="140" height="30" as="geometry" />
        </mxCell>
        <mxCell id="ROsYcnDKvNK4xUjpLFfV-22" value="&lt;font style=&quot;font-size: 9px;&quot; face=&quot;Verdana&quot;&gt;dessert_menu&lt;/font&gt;" style="text;html=1;align=center;verticalAlign=middle;resizable=0;points=[];autosize=1;strokeColor=none;fillColor=none;" vertex="1" parent="ROsYcnDKvNK4xUjpLFfV-101">
          <mxGeometry x="26" y="29" width="90" height="30" as="geometry" />
        </mxCell>
        <mxCell id="ROsYcnDKvNK4xUjpLFfV-25" value="&lt;font style=&quot;font-size: 9px;&quot; face=&quot;Verdana&quot;&gt;a_la_carte_menu&lt;/font&gt;" style="text;html=1;align=center;verticalAlign=middle;resizable=0;points=[];autosize=1;strokeColor=none;fillColor=none;" vertex="1" parent="ROsYcnDKvNK4xUjpLFfV-101">
          <mxGeometry x="28" y="17" width="100" height="30" as="geometry" />
        </mxCell>
        <mxCell id="ROsYcnDKvNK4xUjpLFfV-15" value="" style="sketch=0;outlineConnect=0;fontColor=#232F3E;gradientColor=none;fillColor=#000000;strokeColor=none;dashed=0;verticalLabelPosition=bottom;verticalAlign=top;align=center;html=1;fontSize=12;fontStyle=0;aspect=fixed;pointerEvents=1;shape=mxgraph.aws4.data_table;" vertex="1" parent="ROsYcnDKvNK4xUjpLFfV-101">
          <mxGeometry x="24" y="30" width="11.9" height="9" as="geometry" />
        </mxCell>
        <mxCell id="ROsYcnDKvNK4xUjpLFfV-26" value="" style="sketch=0;outlineConnect=0;fontColor=#232F3E;gradientColor=none;fillColor=#000000;strokeColor=none;dashed=0;verticalLabelPosition=bottom;verticalAlign=top;align=center;html=1;fontSize=12;fontStyle=0;aspect=fixed;pointerEvents=1;shape=mxgraph.aws4.data_table;" vertex="1" parent="ROsYcnDKvNK4xUjpLFfV-101">
          <mxGeometry x="24" y="42" width="11.9" height="9" as="geometry" />
        </mxCell>
        <mxCell id="ROsYcnDKvNK4xUjpLFfV-27" value="" style="sketch=0;outlineConnect=0;fontColor=#232F3E;gradientColor=none;fillColor=#000000;strokeColor=none;dashed=0;verticalLabelPosition=bottom;verticalAlign=top;align=center;html=1;fontSize=12;fontStyle=0;aspect=fixed;pointerEvents=1;shape=mxgraph.aws4.data_table;" vertex="1" parent="ROsYcnDKvNK4xUjpLFfV-101">
          <mxGeometry x="24" y="56" width="11.9" height="9" as="geometry" />
        </mxCell>
        <mxCell id="ROsYcnDKvNK4xUjpLFfV-28" value="" style="sketch=0;outlineConnect=0;fontColor=#232F3E;gradientColor=none;fillColor=#000000;strokeColor=none;dashed=0;verticalLabelPosition=bottom;verticalAlign=top;align=center;html=1;fontSize=12;fontStyle=0;aspect=fixed;pointerEvents=1;shape=mxgraph.aws4.data_table;" vertex="1" parent="ROsYcnDKvNK4xUjpLFfV-101">
          <mxGeometry x="24" y="68.5" width="11.9" height="9" as="geometry" />
        </mxCell>
        <mxCell id="ROsYcnDKvNK4xUjpLFfV-29" value="&lt;font face=&quot;Verdana&quot; style=&quot;font-size: 9px;&quot;&gt;orders&lt;/font&gt;" style="text;html=1;align=center;verticalAlign=middle;resizable=0;points=[];autosize=1;strokeColor=none;fillColor=none;" vertex="1" parent="ROsYcnDKvNK4xUjpLFfV-101">
          <mxGeometry x="28" y="79" width="50" height="30" as="geometry" />
        </mxCell>
        <mxCell id="ROsYcnDKvNK4xUjpLFfV-30" value="" style="sketch=0;outlineConnect=0;fontColor=#232F3E;gradientColor=none;fillColor=#000000;strokeColor=none;dashed=0;verticalLabelPosition=bottom;verticalAlign=top;align=center;html=1;fontSize=12;fontStyle=0;aspect=fixed;pointerEvents=1;shape=mxgraph.aws4.data_table;" vertex="1" parent="ROsYcnDKvNK4xUjpLFfV-101">
          <mxGeometry x="24" y="91.5" width="11.9" height="9" as="geometry" />
        </mxCell>
        <mxCell id="ROsYcnDKvNK4xUjpLFfV-91" value="" style="group" vertex="1" connectable="0" parent="ROsYcnDKvNK4xUjpLFfV-101">
          <mxGeometry width="165" height="21" as="geometry" />
        </mxCell>
        <mxCell id="ROsYcnDKvNK4xUjpLFfV-16" value="&lt;font style=&quot;font-size: 9px;&quot; face=&quot;Verdana&quot;&gt;&amp;nbsp;&amp;nbsp;&amp;nbsp;&amp;nbsp;&amp;nbsp;&amp;nbsp;&amp;nbsp;&amp;nbsp; restaurant_data&lt;/font&gt;" style="html=1;dashed=0;whiteSpace=wrap;shape=mxgraph.dfd.dataStoreID;align=left;spacingLeft=3;points=[[0,0],[0.5,0],[1,0],[0,0.5],[1,0.5],[0,1],[0.5,1],[1,1]];" vertex="1" parent="ROsYcnDKvNK4xUjpLFfV-91">
          <mxGeometry width="165" height="21" as="geometry" />
        </mxCell>
        <mxCell id="ROsYcnDKvNK4xUjpLFfV-57" value="" style="sketch=0;outlineConnect=0;fontColor=#232F3E;gradientColor=none;strokeColor=#000000;fillColor=#ffffff;dashed=0;verticalLabelPosition=bottom;verticalAlign=top;align=center;html=1;fontSize=12;fontStyle=0;aspect=fixed;shape=mxgraph.aws4.resourceIcon;resIcon=mxgraph.aws4.container_1;" vertex="1" parent="ROsYcnDKvNK4xUjpLFfV-91">
          <mxGeometry x="13" y="5.5" width="14" height="14" as="geometry" />
        </mxCell>
        <mxCell id="ROsYcnDKvNK4xUjpLFfV-111" value="&lt;font face=&quot;Courier New&quot;&gt;read orders&lt;/font&gt;" style="edgeLabel;html=1;align=center;verticalAlign=middle;resizable=0;points=[];" vertex="1" connectable="0" parent="1">
          <mxGeometry x="151" y="360" as="geometry" />
        </mxCell>
        <mxCell id="ROsYcnDKvNK4xUjpLFfV-117" value="&lt;pre&gt;&lt;font face=&quot;Courier New&quot;&gt;build models&lt;/font&gt;&lt;/pre&gt;" style="edgeLabel;html=1;align=center;verticalAlign=middle;resizable=0;points=[];" vertex="1" connectable="0" parent="1">
          <mxGeometry x="259" y="521" as="geometry" />
        </mxCell>
        <mxCell id="ROsYcnDKvNK4xUjpLFfV-118" style="edgeStyle=orthogonalEdgeStyle;rounded=0;orthogonalLoop=1;jettySize=auto;html=1;exitX=1;exitY=0.5;exitDx=0;exitDy=0;" edge="1" parent="1" source="ROsYcnDKvNK4xUjpLFfV-68">
          <mxGeometry relative="1" as="geometry">
            <mxPoint x="874" y="490" as="sourcePoint" />
            <mxPoint x="490" y="300" as="targetPoint" />
            <Array as="points">
              <mxPoint x="774" y="480" />
              <mxPoint x="774" y="300" />
            </Array>
          </mxGeometry>
        </mxCell>
        <mxCell id="ROsYcnDKvNK4xUjpLFfV-119" style="edgeStyle=orthogonalEdgeStyle;rounded=0;orthogonalLoop=1;jettySize=auto;html=1;exitX=1;exitY=0.5;exitDx=0;exitDy=0;" edge="1" parent="1" source="ROsYcnDKvNK4xUjpLFfV-69">
          <mxGeometry relative="1" as="geometry">
            <mxPoint x="875" y="518" as="sourcePoint" />
            <mxPoint x="490" y="300" as="targetPoint" />
            <Array as="points">
              <mxPoint x="774" y="507" />
              <mxPoint x="774" y="300" />
            </Array>
          </mxGeometry>
        </mxCell>
        <mxCell id="ROsYcnDKvNK4xUjpLFfV-120" style="edgeStyle=orthogonalEdgeStyle;rounded=0;orthogonalLoop=1;jettySize=auto;html=1;exitX=1;exitY=0.5;exitDx=0;exitDy=0;" edge="1" parent="1" source="ROsYcnDKvNK4xUjpLFfV-75">
          <mxGeometry relative="1" as="geometry">
            <mxPoint x="875" y="548" as="sourcePoint" />
            <mxPoint x="490" y="300" as="targetPoint" />
            <Array as="points">
              <mxPoint x="774" y="537" />
              <mxPoint x="774" y="300" />
            </Array>
          </mxGeometry>
        </mxCell>
        <mxCell id="ROsYcnDKvNK4xUjpLFfV-121" style="edgeStyle=orthogonalEdgeStyle;rounded=0;orthogonalLoop=1;jettySize=auto;html=1;exitX=1;exitY=0.5;exitDx=0;exitDy=0;" edge="1" parent="1" source="ROsYcnDKvNK4xUjpLFfV-72">
          <mxGeometry relative="1" as="geometry">
            <mxPoint x="877" y="578" as="sourcePoint" />
            <mxPoint x="490" y="300" as="targetPoint" />
            <Array as="points">
              <mxPoint x="774" y="567" />
              <mxPoint x="774" y="300" />
            </Array>
          </mxGeometry>
        </mxCell>
        <mxCell id="ROsYcnDKvNK4xUjpLFfV-122" value="&lt;pre&gt;&lt;font face=&quot;Courier New&quot;&gt;store output&lt;/font&gt;&lt;/pre&gt;" style="edgeLabel;html=1;align=center;verticalAlign=middle;resizable=0;points=[];" vertex="1" connectable="0" parent="1">
          <mxGeometry x="770" y="390" as="geometry" />
        </mxCell>
      </root>
    </mxGraphModel>
  </diagram>
</mxfile>
